<svg xmlns="http://www.w3.org/2000/svg" version="1.1" xmlns:xlink="http://www.w3.org/1999/xlink" width="512" height="512"><svg xmlns="http://www.w3.org/2000/svg" viewBox="0 0 512 512"><path fill="#6366f1" d="M259 1c2.482 1.177 2.482 1.177 5.113 2.668l2.994 1.685c1.058.606 2.116 1.21 3.205 1.835 1.11.627 2.218 1.255 3.36 1.902 9.458 5.372 18.855 10.847 28.238 16.348a3034.706 3034.706 0 0 0 18.965 11l3.273 1.886 6.57 3.785c5.429 3.128 10.855 6.26 16.282 9.391l6.5 3.75 68.253 39.377 6.47 3.733a49096.477 49096.477 0 0 1 26.625 15.367c7.705 4.447 15.428 8.86 23.152 13.273v258l-18 10a1431.117 1431.117 0 0 0-11.5 6.688l-6.164 3.609-3.153 1.846c-5.342 3.117-10.7 6.206-16.058 9.295l-3.271 1.885-6.572 3.786c-5.429 3.128-10.855 6.26-16.282 9.391l-6.5 3.75-3.25 1.875-65.001 37.5a53854.42 53854.42 0 0 0-6.49 3.746c-5.465 3.153-10.93 6.304-16.4 9.45l-3.317 1.91a4270.828 4270.828 0 0 1-6.53 3.75c-5.32 3.058-10.6 6.166-15.825 9.386l-3.034 1.853a422.645 422.645 0 0 0-5.627 3.509l-2.542 1.552-2.196 1.377c-3.151 1.16-5.066.704-8.288-.158-2.655-1.252-2.655-1.252-5.36-2.852l-3.09-1.806c-1.088-.65-2.178-1.298-3.3-1.967a2422.01 2422.01 0 0 0-3.473-2.037 2733.657 2733.657 0 0 1-7.205-4.237c-5.5-3.241-11.038-6.418-16.572-9.601l-6.492-3.746a22001.83 22001.83 0 0 0-13.078-7.54 5512.287 5512.287 0 0 1-31.305-18.151A2685.167 2685.167 0 0 0 136 444a2966.44 2966.44 0 0 1-29.067-16.783c-10.503-6.143-21.046-12.217-31.59-18.29a33252.435 33252.435 0 0 1-20.366-11.741 267.197 267.197 0 0 1-5.8-3.44c-3.086-1.829-3.086-1.829-6.335-2.752-3.947-1.487-6.055-2.79-8.842-5.994-2.401-7.754-1.51-16.469-1.362-24.478.003-2.543.001-5.086-.006-7.629-.002-5.472.032-10.942.1-16.414.097-7.91.128-15.82.143-23.731.026-12.836.106-25.67.22-38.506.11-12.465.195-24.93.246-37.397l.01-2.33.045-11.57c.124-31.983.336-63.964.604-95.945l2.007-1.133 9.082-5.13 3.157-1.782a1360.99 1360.99 0 0 0 20.566-11.83c11.606-6.796 23.252-13.52 34.906-20.234 5.429-3.128 10.855-6.26 16.282-9.391l6.5-3.75 3.25-1.875 65.002-37.501 6.478-3.738c5.528-3.19 11.056-6.377 16.586-9.562l3.396-1.957c2.207-1.271 4.415-2.54 6.625-3.808 4.835-2.781 9.647-5.584 14.397-8.508l2.373-1.448c1.419-.87 2.83-1.753 4.233-2.65C252.768.304 254.614-.282 259 1Z"></path><path fill="#FEFDFE" d="M298.746 63.692c2.7 1.566 5.437 2.967 8.254 4.308v2l-87.752 50.626-6.483 3.74-19.874 11.464c-2.201 1.27-4.402 2.54-6.602 3.813-4.896 2.83-9.797 5.65-14.723 8.427-20.617 11.667-36.024 23.104-42.72 46.758-2.928 11.439-2.423 23.196-2.377 34.918-.003 2.467-.007 4.933-.012 7.4-.006 5.14.003 10.279.022 15.418.022 6.573.01 13.144-.015 19.717-.014 5.081-.01 10.162 0 15.244.003 2.423 0 4.847-.01 7.27-.01 3.386.006 6.77.028 10.156l-.024 3c.113 9.357 3.14 15.962 9.23 23.049l2.386 2.813c1.43 1.625 1.43 1.625 2.926 3.187l.004-2.05c.038-16.53.097-33.058.18-49.587.04-7.994.072-15.987.087-23.98.013-6.974.04-13.948.084-20.921.022-3.687.038-7.373.037-11.06 0-39.612 0-39.612 12.234-52.056 5.793-5.235 12.195-9.074 18.936-12.971l3.61-2.11c10.253-5.99 20.577-11.853 30.94-17.65 2.978-1.665 5.953-3.335 8.927-5.006a9388.489 9388.489 0 0 1 47.765-26.608c14.414-7.983 28.845-15.93 43.347-23.753l2.74-1.478c.857-.46 1.715-.92 2.6-1.393 1.695-.93 3.373-1.893 5.034-2.883l2.397-1.42 2.097-1.282c2.451-.98 3.54-.695 5.981.208a93.75 93.75 0 0 1 4.625 2.438 871.286 871.286 0 0 0 10.957 6.042l4.855 2.645 2.368 1.271 2.254 1.237 2.01 1.09c2.283 1.51 4.053 3.294 5.931 5.277a719.194 719.194 0 0 1-26.313 15.625 7506.45 7506.45 0 0 0-7.425 4.227l-1.867 1.063A1722.935 1722.935 0 0 0 308 132c-9.228 5.404-18.5 10.727-27.791 16.02a2455.295 2455.295 0 0 0-27.109 15.682c-5.416 3.173-10.855 6.3-16.327 9.376C202.02 192.584 202.02 192.584 184 227l-1.039 3.002c-1.415 4.99-1.248 9.996-1.236 15.146l-.015 3.339c-.014 3.63-.013 7.259-.01 10.888l-.014 7.587c-.007 5.296-.007 10.592-.002 15.888.006 6.109-.006 12.218-.027 18.327a4473.68 4473.68 0 0 0-.02 17.683c0 2.5-.005 5-.015 7.502-.013 3.496-.006 6.993.006 10.49l-.023 3.12c.064 8.832 2.145 14.003 8.02 20.778 4.277 4.955 4.277 4.955 5.375 8.25h2l-.008-2.09a24046.82 24046.82 0 0 1-.147-50.485 10459.6 10459.6 0 0 0-.071-24.414c-.03-7.098-.05-14.196-.056-21.293-.004-3.755-.013-7.509-.035-11.263-.02-3.542-.027-7.084-.022-10.627a700.206 700.206 0 0 0-.034-5.704c.046-13.14 2.531-25.332 11.912-34.999 4.433-4.343 9.262-7.347 14.648-10.375l2.909-1.676c2.962-1.703 5.932-3.389 8.904-5.074a2910.008 2910.008 0 0 1 21-12l2.72-1.545c14.56-8.27 29.183-16.422 43.827-24.539 3.444-1.91 6.884-3.827 10.324-5.744a3049.037 3049.037 0 0 1 35.658-19.586 1906.68 1906.68 0 0 0 18.783-10.273l2.247-1.244c2.886-1.606 5.692-3.236 8.441-5.069 4.556.26 7.985 2.57 11.75 4.938l3.957 2.43 2.096 1.291c3.85 2.35 7.743 4.624 11.634 6.904l4.372 2.566L415 131c-2.93 2.288-5.94 4.2-9.164 6.047l-3.11 1.787-3.351 1.916-3.5 2.01a9802.082 9802.082 0 0 1-7.27 4.172c-5.542 3.178-11.073 6.374-16.605 9.568a96160.783 96160.783 0 0 1-9.75 5.625l-39.002 22.501-6.478 3.738c-5.528 3.19-11.056 6.377-16.586 9.562a9454.412 9454.412 0 0 0-16.303 9.414 1317.47 1317.47 0 0 1-7.834 4.473c-20.177 11.514-33.502 22.826-40.042 45.713-2.543 9.537-2.85 18.668-2.778 28.483-.008 1.895-.019 3.79-.032 5.684-.028 5.07-.02 10.138-.005 15.207.01 5.325-.015 10.65-.036 15.975-.034 10.05-.039 20.1-.031 30.15.006 11.457-.022 22.913-.052 34.37-.061 23.535-.08 47.07-.071 70.605-5.308-1.43-9.654-3.312-14.313-6.187-1.506-.908-3.014-1.814-4.523-2.72l-2.491-1.5c-5.004-2.983-10.06-5.876-15.11-8.78l-6.747-3.887-3.421-1.97c-5.467-3.15-10.93-6.303-16.395-9.456l-6.5-3.75-13-7.5c-1.073-.62-2.147-1.238-3.253-1.876l-6.47-3.736a4140.348 4140.348 0 0 0-14.96-8.604C93.143 379.348 93.143 379.348 85 372v-2l-3-1c-8.36-10.56-13.108-22.639-13.14-36.057l-.01-2.08c-.008-2.29-.01-4.579-.011-6.867l-.015-4.94c-.013-4.465-.02-8.93-.024-13.395l-.012-8.382c-.013-8.753-.023-17.506-.027-26.26a12437.68 12437.68 0 0 0-.05-30.245c-.023-7.807-.033-15.615-.034-23.422a3826.56 3826.56 0 0 0-.025-13.969c-.016-4.384-.018-8.769-.01-13.154.001-1.6-.003-3.202-.013-4.803-.105-17.962 3.718-32.143 16.332-45.563 10.425-9.526 23.647-15.967 35.83-22.897A3039.451 3039.451 0 0 0 139 106.5l6.5-3.75 3.25-1.875L184.5 80.25l3.254-1.878c2.153-1.242 4.307-2.483 6.46-3.723 5.033-2.899 10.06-5.805 15.07-8.743 1.765-1.035 3.531-2.067 5.298-3.097 2.209-1.29 4.415-2.586 6.617-3.887 27.619-16.09 51.163-10.935 77.547 4.77Z"></path><path fill="#FEFEFE" d="M430.19 144.666c2.764 2.037 4.225 4.77 5.872 7.709l1.026 1.691c6.322 11.08 6.313 22.833 6.1 35.184-.016 1.535-.03 3.07-.042 4.605-.032 3.716-.084 7.43-.146 11.145l-1.73.971c-12.037 6.762-24.02 13.605-35.932 20.584-7.75 4.534-15.537 9-23.338 13.445a2745.145 2745.145 0 0 0-29.027 16.764 1588.152 1588.152 0 0 1-15.965 9.232l-3.543 2.025c-2.244 1.282-4.49 2.559-6.739 3.83-11.62 6.3-11.62 6.3-20.101 16.087l-1.398 2.402c-3.352 7.27-3.534 13.812-3.528 21.726l-.013 3.492c-.005 2.428-.006 4.856-.002 7.285.003 3.71-.02 7.42-.045 11.132a5086.14 5086.14 0 0 0-.002 7.091l-.028 3.353c.04 6.588.494 11.362 5.078 16.456 3.405 1.656 6.632 1.613 10.313 1.125 2.87-1.053 5.39-2.546 8-4.125l2.322-1.347c1.677-.975 3.35-1.959 5.018-2.95a979.013 979.013 0 0 1 8.254-4.832c4.028-2.34 8.05-4.688 12.07-7.043 6.389-3.74 12.797-7.444 19.211-11.14l3.271-1.886 6.572-3.786c6.495-3.742 12.988-7.49 19.481-11.237 5.087-2.936 10.175-5.87 15.266-8.8l7.23-4.164 5.12-2.944 3.119-1.797 2.751-1.583A114.68 114.68 0 0 0 440 291h3c.076 7.08.129 14.16.165 21.24.015 2.406.035 4.81.061 7.216.037 3.47.054 6.94.067 10.411.015 1.064.03 2.128.047 3.224.003 14.58-5.905 28.266-16.043 38.823-10.566 9.595-23.766 16.111-36.089 23.12A3040.705 3040.705 0 0 0 373 405.5l-6.5 3.75-3.25 1.875-35.75 20.625-3.253 1.878a4677.735 4677.735 0 0 1-6.468 3.723c-5.015 2.883-10.018 5.781-14.986 8.743a1466.45 1466.45 0 0 1-5.229 3.097 719.9 719.9 0 0 0-6.5 3.887c-11.106 6.533-22.514 10.106-35.439 9.985l-3.773-.028L249 463c-.07-25.461-.123-50.922-.155-76.383-.016-11.823-.037-23.646-.071-35.469-.03-10.308-.05-20.617-.056-30.925-.004-5.455-.013-10.91-.035-16.365a3177.54 3177.54 0 0 1-.022-15.427c-.001-1.88-.007-3.759-.019-5.638-.095-16.36 1.02-31.092 12.315-43.77 3.36-3.327 7.172-5.636 11.23-8.023l2.73-1.647c12.236-7.33 24.657-14.352 37.083-21.353l3.252-1.833A5638.13 5638.13 0 0 1 337 194l3.244-1.807A11909.298 11909.298 0 0 1 365.804 178c16.126-8.932 32.257-17.858 48.521-26.537a186.484 186.484 0 0 0 5.654-3.233l2.95-1.723 2.656-1.597c2.415-.91 2.415-.91 4.605-.244Z"></path></svg><style>@media (prefers-color-scheme: light) { :root { filter: none; } }
@media (prefers-color-scheme: dark) { :root { filter: none; } }
</style></svg>